<?xml version="1.0" encoding="utf-8"?>
<!-- Generator: Adobe Illustrator 17.0.0, SVG Export Plug-In . SVG Version: 6.00 Build 0)  -->
<!DOCTYPE svg PUBLIC "-//W3C//DTD SVG 1.1//EN" "http://www.w3.org/Graphics/SVG/1.1/DTD/svg11.dtd">
<svg version="1.1" id="Layer_1" xmlns="http://www.w3.org/2000/svg" xmlns:xlink="http://www.w3.org/1999/xlink" x="0px" y="0px"
	 width="100px" height="100px" viewBox="0 0 100 100" enable-background="new 0 0 100 100" xml:space="preserve">
<g>
	<circle fill="#ED7635" cx="50" cy="50" r="8.621"/>
</g>
<g>
	<ellipse fill="#8ECC51" cx="79.31" cy="50" rx="20.69" ry="18.103"/>
	<ellipse fill="#8ECC51" cx="50" cy="79.31" rx="18.103" ry="20.69"/>
	<ellipse fill="#8ECC51" cx="20.69" cy="50" rx="20.69" ry="18.103"/>
	<ellipse fill="#8ECC51" cx="50" cy="20.69" rx="18.103" ry="20.69"/>
</g>
<g>
	
		<ellipse transform="matrix(0.7071 0.7071 -0.7071 0.7071 65.85 -27.276)" fill="#51CCCC" cx="65.85" cy="65.85" rx="13.793" ry="12.07"/>
	
		<ellipse transform="matrix(-0.7071 0.7071 -0.7071 -0.7071 104.8607 88.2653)" fill="#51CCCC" cx="34.15" cy="65.85" rx="13.793" ry="12.07"/>
	
		<ellipse transform="matrix(-0.7071 -0.7071 0.7071 -0.7071 34.15 82.4454)" fill="#51CCCC" cx="34.15" cy="34.15" rx="13.793" ry="12.07"/>
	
		<ellipse transform="matrix(0.7071 -0.7071 0.7071 0.7071 -4.8607 56.5653)" fill="#51CCCC" cx="65.85" cy="34.15" rx="13.793" ry="12.07"/>
</g>
<g>
	<ellipse fill="#8E51CC" cx="50" cy="67.816" rx="8.045" ry="9.195"/>
	<ellipse fill="#8E51CC" cx="32.184" cy="50" rx="9.195" ry="8.045"/>
	<ellipse fill="#8E51CC" cx="50" cy="32.184" rx="8.045" ry="9.195"/>
	<ellipse fill="#8E51CC" cx="67.816" cy="50" rx="9.195" ry="8.045"/>
</g>
<g>
	<path fill="#CC5151" d="M34.152,65.848c-2.359-2.355-2.083-6.448,0.61-9.141c2.693-2.697,6.786-2.969,9.141-0.61
		c2.359,2.355,2.086,6.448-0.61,9.141C40.6,67.931,36.507,68.207,34.152,65.848z"/>
	<path fill="#CC5151" d="M34.152,34.152c2.355-2.359,6.448-2.083,9.141,0.61c2.697,2.693,2.969,6.786,0.61,9.141
		c-2.355,2.359-6.448,2.086-9.141-0.61C32.069,40.6,31.793,36.507,34.152,34.152z"/>
	<path fill="#CC5151" d="M65.848,34.152c2.359,2.355,2.083,6.448-0.61,9.141c-2.693,2.697-6.786,2.969-9.141,0.61
		c-2.359-2.355-2.086-6.448,0.61-9.141C59.4,32.069,63.493,31.793,65.848,34.152z"/>
	<path fill="#CC5151" d="M65.848,65.848c-2.355,2.359-6.448,2.083-9.141-0.61c-2.697-2.693-2.969-6.786-0.61-9.141
		c2.355-2.359,6.448-2.086,9.141,0.61C67.931,59.4,68.207,63.493,65.848,65.848z"/>
</g>
</svg>
