<?xml version="1.0" encoding="utf-8"?>
<!-- Generator: Adobe Illustrator 17.0.0, SVG Export Plug-In . SVG Version: 6.00 Build 0)  -->
<!DOCTYPE svg PUBLIC "-//W3C//DTD SVG 1.1//EN" "http://www.w3.org/Graphics/SVG/1.1/DTD/svg11.dtd">
<svg version="1.1" id="Layer_1" xmlns="http://www.w3.org/2000/svg" xmlns:xlink="http://www.w3.org/1999/xlink" x="0px" y="0px"
	 width="100px" height="100px" viewBox="0 0 100 100" enable-background="new 0 0 100 100" xml:space="preserve">
<g>
	<circle fill="#ED7635" cx="50" cy="50" r="1.923"/>
</g>
<g>
	<ellipse fill="#8ECC51" cx="75.962" cy="50" rx="24.038" ry="8.173"/>
	<ellipse fill="#8ECC51" cx="50" cy="75.962" rx="8.173" ry="24.038"/>
	<ellipse fill="#8ECC51" cx="24.038" cy="50" rx="24.038" ry="8.173"/>
	<ellipse fill="#8ECC51" cx="50" cy="24.038" rx="8.173" ry="24.038"/>
</g>
<g>
	
		<ellipse transform="matrix(0.7071 0.7071 -0.7071 0.7071 62.6914 -25.9676)" fill="#51CCCC" cx="62.691" cy="62.691" rx="16.025" ry="5.449"/>
	
		<ellipse transform="matrix(-0.7071 0.7071 -0.7071 -0.7071 108.0193 80.6396)" fill="#51CCCC" cx="37.309" cy="62.691" rx="16.025" ry="5.449"/>
	
		<ellipse transform="matrix(-0.7071 -0.7071 0.7071 -0.7071 37.3087 90.0711)" fill="#51CCCC" cx="37.309" cy="37.309" rx="16.025" ry="5.449"/>
	
		<ellipse transform="matrix(0.7071 -0.7071 0.7071 0.7071 -8.0193 55.2569)" fill="#51CCCC" cx="62.691" cy="37.309" rx="16.025" ry="5.449"/>
</g>
<g>
	<ellipse fill="#8E51CC" cx="50" cy="62.607" rx="3.633" ry="10.684"/>
	<ellipse fill="#8E51CC" cx="37.393" cy="50" rx="10.684" ry="3.633"/>
	<ellipse fill="#8E51CC" cx="50" cy="37.393" rx="3.633" ry="10.684"/>
	<ellipse fill="#8E51CC" cx="62.607" cy="50" rx="10.684" ry="3.633"/>
</g>
<g>
	
		<ellipse transform="matrix(-0.7071 0.7071 -0.7071 -0.7071 113.6847 66.9622)" fill="#CC5151" cx="42.974" cy="57.026" rx="8.013" ry="2.724"/>
	
		<ellipse transform="matrix(-0.7071 -0.7071 0.7071 -0.7071 42.974 103.7485)" fill="#CC5151" cx="42.974" cy="42.974" rx="8.013" ry="2.724"/>
	
		<ellipse transform="matrix(0.7071 -0.7071 0.7071 0.7071 -13.6847 52.9103)" fill="#CC5151" cx="57.026" cy="42.974" rx="8.013" ry="2.724"/>
	
		<ellipse transform="matrix(0.7071 0.7071 -0.7071 0.7071 57.026 -23.6209)" fill="#CC5151" cx="57.026" cy="57.026" rx="8.013" ry="2.724"/>
</g>
</svg>
