<?xml version="1.0" encoding="utf-8"?>
<!-- Generator: Adobe Illustrator 17.0.0, SVG Export Plug-In . SVG Version: 6.00 Build 0)  -->
<!DOCTYPE svg PUBLIC "-//W3C//DTD SVG 1.1//EN" "http://www.w3.org/Graphics/SVG/1.1/DTD/svg11.dtd">
<svg version="1.1" id="Layer_1" xmlns="http://www.w3.org/2000/svg" xmlns:xlink="http://www.w3.org/1999/xlink" x="0px" y="0px"
	 width="100px" height="100px" viewBox="0 0 100 100" enable-background="new 0 0 100 100" xml:space="preserve">
<ellipse fill="#ED7635" cx="47.521" cy="50" rx="47.521" ry="47.363"/>
<g>
	<ellipse fill="#8ECC51" cx="50" cy="50" rx="50" ry="15.856"/>
	<path fill="#8ECC51" d="M63.74,99.744c-8.36,2.706-22.05-16.318-30.583-42.495c-8.533-26.173-8.678-49.587-0.322-52.293
		c8.36-2.706,22.05,16.318,30.583,42.495C71.95,73.624,72.095,97.038,63.74,99.744z"/>
	<path fill="#8ECC51" d="M5.062,80.745c-5.161-7.084,8.76-25.943,31.103-42.12c22.339-16.178,44.636-23.55,49.802-16.466
		c5.165,7.088-8.76,25.943-31.099,42.12C32.525,80.457,10.227,87.829,5.062,80.745z"/>
	<path fill="#8ECC51" d="M5.062,19.255c5.165-7.084,27.463,0.288,49.806,16.466c22.339,16.178,36.264,35.032,31.099,42.12
		c-5.165,7.084-27.463-0.288-49.802-16.466C13.822,45.198-0.099,26.339,5.062,19.255z"/>
	<path fill="#8ECC51" d="M63.74,0.256c8.355,2.706,8.211,26.12-0.322,52.293C54.884,78.727,41.194,97.75,32.835,95.044
		c-8.355-2.706-8.211-26.12,0.322-52.293C41.69,16.574,55.38-2.45,63.74,0.256z"/>
</g>
<g>
	<path fill="#51CCCC" d="M63.008,61.215c-3.442,4.724-18.306-0.189-33.198-10.976C14.913,39.457,5.632,26.883,9.074,22.159
		c3.446-4.72,18.31,0.194,33.202,10.976C57.169,43.921,66.455,56.495,63.008,61.215z"/>
	<path fill="#51CCCC" d="M41.603,68.15c-5.57-1.804-5.475-17.413,0.215-34.863c5.69-17.45,14.818-30.135,20.388-28.331
		c5.57,1.804,5.475,17.413-0.215,34.863C56.302,57.269,47.174,69.954,41.603,68.15z"/>
	<ellipse fill="#51CCCC" cx="61.709" cy="50" rx="33.333" ry="10.572"/>
	<path fill="#51CCCC" d="M41.603,31.85c5.57-1.804,14.698,10.881,20.388,28.331c5.69,17.45,5.785,33.059,0.215,34.863
		c-5.57,1.804-14.698-10.881-20.388-28.331C36.128,49.263,36.033,33.654,41.603,31.85z"/>
	<path fill="#51CCCC" d="M63.008,38.785c3.446,4.72-5.839,17.294-20.731,28.08C27.384,77.648,12.521,82.561,9.074,77.841
		c-3.442-4.724,5.839-17.298,20.736-28.08C44.702,38.975,59.566,34.061,63.008,38.785z"/>
</g>
<g>
	<path fill="#8E51CC" d="M46.57,47.084c-3.715,1.203-9.798-7.253-13.591-18.888S29.124,6.158,32.835,4.956
		c3.715-1.203,9.802,7.253,13.591,18.888C50.219,35.474,50.285,45.881,46.57,47.084z"/>
	<path fill="#8E51CC" d="M50.008,48.196c-2.293-3.147,3.893-11.528,13.822-18.719c9.93-7.191,19.839-10.465,22.136-7.319
		c2.293,3.151-3.893,11.532-13.822,18.723C62.215,48.073,52.306,51.347,50.008,48.196z"/>
	<path fill="#8E51CC" d="M50.008,51.804c2.298-3.151,12.207,0.124,22.136,7.315c9.93,7.191,16.116,15.572,13.822,18.723
		c-2.298,3.147-12.207-0.128-22.136-7.319C53.901,63.332,47.715,54.95,50.008,51.804z"/>
	<path fill="#8E51CC" d="M46.57,52.916c3.715,1.203,3.649,11.61-0.145,23.241c-3.789,11.635-9.876,20.09-13.591,18.888
		c-3.711-1.203-3.649-11.606,0.145-23.241S42.855,51.713,46.57,52.916z"/>
	<ellipse fill="#8E51CC" cx="22.223" cy="50" rx="22.223" ry="7.047"/>
</g>
<g>
	<path fill="#CC5151" d="M51.905,36.553c-2.785-0.902-2.74-8.707,0.107-17.434c2.843-8.723,7.409-15.066,10.194-14.164
		c2.785,0.902,2.736,8.707-0.107,17.43C59.252,31.112,54.69,37.455,51.905,36.553z"/>
	<ellipse fill="#CC5151" cx="78.374" cy="50" rx="16.667" ry="5.284"/>
	<path fill="#CC5151" d="M51.905,63.447c2.785-0.902,7.347,5.441,10.194,14.168c2.843,8.723,2.893,16.528,0.107,17.43
		c-2.785,0.902-7.351-5.441-10.194-14.164C49.165,72.154,49.12,64.349,51.905,63.447z"/>
	<path fill="#CC5151" d="M36.041,58.311c1.723,2.36-2.917,8.649-10.364,14.04c-7.446,5.391-14.88,7.85-16.603,5.49
		c-1.719-2.364,2.921-8.649,10.368-14.04C26.888,58.406,34.322,55.951,36.041,58.311z"/>
	<path fill="#CC5151" d="M36.041,41.689c-1.719,2.36-9.153-0.095-16.599-5.49c-7.446-5.391-12.087-11.676-10.368-14.04
		c1.723-2.36,9.157,0.099,16.603,5.49C33.124,33.04,37.764,39.329,36.041,41.689z"/>
</g>
</svg>
