<?xml version="1.0" encoding="utf-8"?>
<!-- Generator: Adobe Illustrator 17.0.0, SVG Export Plug-In . SVG Version: 6.00 Build 0)  -->
<!DOCTYPE svg PUBLIC "-//W3C//DTD SVG 1.1//EN" "http://www.w3.org/Graphics/SVG/1.1/DTD/svg11.dtd">
<svg version="1.1" id="Layer_1" xmlns="http://www.w3.org/2000/svg" xmlns:xlink="http://www.w3.org/1999/xlink" x="0px" y="0px"
	 width="100px" height="100px" viewBox="0 0 100 100" enable-background="new 0 0 100 100" xml:space="preserve">
<g>
	<ellipse fill="#ED7635" cx="44.463" cy="50" rx="44.463" ry="41.904"/>
</g>
<g>
	<ellipse fill="#51CCCC" cx="11.227" cy="50" rx="11.227" ry="41.904"/>
	<path fill="#51CCCC" d="M55.468,32.036C34.201,20.466,19.475,6.981,22.574,1.921c3.101-5.06,22.854,0.218,44.121,11.788
		c21.267,11.572,35.993,25.056,32.894,30.116C96.487,48.885,76.734,43.608,55.468,32.036z"/>
	<path fill="#51CCCC" d="M55.468,67.964c21.267-11.572,41.019-16.85,44.121-11.79c3.099,5.06-11.627,18.545-32.894,30.116
		c-21.267,11.57-41.019,16.847-44.121,11.788C19.475,93.019,34.201,79.534,55.468,67.964z"/>
</g>
<g>
	<path fill="#CC5151" d="M29.717,25.928C15.538,33.643,2.37,37.161,0.302,33.787c-2.065-3.373,7.752-12.364,21.929-20.078
		C36.409,5.997,49.578,2.477,51.644,5.85C53.711,9.225,43.894,18.214,29.717,25.928z"/>
	<ellipse fill="#CC5151" cx="81.442" cy="50" rx="7.484" ry="27.935"/>
	<path fill="#CC5151" d="M29.717,74.072c14.177,7.715,23.994,16.703,21.927,20.078c-2.065,3.373-15.235-0.147-29.412-7.859
		C8.054,78.576-1.763,69.586,0.302,66.213C2.37,62.839,15.538,66.357,29.717,74.072z"/>
</g>
</svg>
