<?xml version="1.0" encoding="utf-8"?>
<!-- Generator: Adobe Illustrator 17.0.0, SVG Export Plug-In . SVG Version: 6.00 Build 0)  -->
<!DOCTYPE svg PUBLIC "-//W3C//DTD SVG 1.1//EN" "http://www.w3.org/Graphics/SVG/1.1/DTD/svg11.dtd">
<svg version="1.1" id="Layer_1" xmlns="http://www.w3.org/2000/svg" xmlns:xlink="http://www.w3.org/1999/xlink" x="0px" y="0px"
	 width="100px" height="100px" viewBox="0 0 100 100" enable-background="new 0 0 100 100" xml:space="preserve">
<g>
	<ellipse fill="#ED7635" cx="50.218" cy="50" rx="39.851" ry="39.593"/>
</g>
<g>
	<ellipse fill="#51CCCC" cx="20.43" cy="50" rx="10.062" ry="39.593"/>
	<path fill="#51CCCC" d="M32.751,40.892C22.524,60.255,10.244,73.87,5.322,71.305c-4.922-2.568-0.618-20.343,9.61-39.704
		C25.16,12.238,37.44-1.378,42.361,1.188C47.281,3.754,42.979,21.531,32.751,40.892z"/>
	<path fill="#51CCCC" d="M39.012,33.87C20.9,46.292,3.656,52.678,0.5,48.135c-3.158-4.545,8.966-18.298,27.08-30.72
		C45.693,4.995,62.936-1.391,66.092,3.152C69.248,7.695,57.126,21.45,39.012,33.87z"/>
	<path fill="#51CCCC" d="M47.841,30.544c-21.848,2.637-40.104,0.329-40.773-5.151c-0.669-5.482,16.498-12.062,38.346-14.697
		c21.848-2.637,40.104-0.329,40.773,5.151C86.856,21.329,69.689,27.909,47.841,30.544z"/>
	<path fill="#51CCCC" d="M57.214,31.674C36.635,23.92,21.549,13.45,23.52,8.287c1.971-5.161,20.25-3.061,40.829,4.694
		s35.664,18.225,33.694,23.387C96.072,41.529,77.79,39.429,57.214,31.674z"/>
	<path fill="#51CCCC" d="M64.982,37.004C50.389,20.636,41.929,4.401,46.089,0.739c4.158-3.66,19.363,6.64,33.957,23.007
		c14.595,16.366,23.054,32.603,18.895,36.265C94.781,63.671,79.578,53.371,64.982,37.004z"/>
	<path fill="#51CCCC" d="M69.37,45.31c-5.266-21.232-5.163-39.514,0.233-40.836c5.396-1.32,14.039,14.82,19.308,36.051
		c5.266,21.23,5.163,39.514-0.233,40.834C83.282,82.682,74.638,66.542,69.37,45.31z"/>
	<path fill="#51CCCC" d="M69.37,54.69c5.268-21.23,13.912-37.372,19.308-36.049c5.396,1.32,5.499,19.604,0.233,40.834
		c-5.268,21.232-13.912,37.372-19.308,36.051C64.207,94.203,64.104,75.921,69.37,54.69z"/>
	<path fill="#51CCCC" d="M64.982,62.996c14.595-16.368,29.798-26.668,33.959-23.007c4.158,3.662-4.3,19.899-18.895,36.265
		c-14.593,16.368-29.798,26.668-33.957,23.007C41.929,95.599,50.389,79.364,64.982,62.996z"/>
	<path fill="#51CCCC" d="M57.214,68.326c20.577-7.754,38.858-9.855,40.829-4.694c1.971,5.163-13.115,15.633-33.694,23.387
		s-38.858,9.855-40.829,4.694C21.549,86.55,36.635,76.08,57.214,68.326z"/>
	<path fill="#51CCCC" d="M47.841,69.456c21.848,2.635,39.016,9.215,38.346,14.697c-0.669,5.48-18.925,7.788-40.773,5.151
		C23.566,86.669,6.398,80.089,7.068,74.607C7.737,69.127,25.993,66.819,47.841,69.456z"/>
	<path fill="#51CCCC" d="M39.012,66.13c18.114,12.42,30.237,26.175,27.08,30.718c-3.156,4.543-20.399-1.843-38.512-14.263
		C9.467,70.163-2.658,56.41,0.5,51.865C3.656,47.322,20.9,53.708,39.012,66.13z"/>
	<path fill="#51CCCC" d="M32.751,59.108c10.228,19.361,14.53,37.138,9.61,39.704c-4.922,2.566-17.201-11.05-27.429-30.413
		C4.704,49.038,0.401,31.263,5.322,28.695C10.244,26.13,22.524,39.745,32.751,59.108z"/>
</g>
<g>
	<path fill="#CC5151" d="M24.552,43.715c-3.511,14.154-9.275,24.914-12.872,24.033c-3.597-0.881-3.666-13.068-0.155-27.222
		S20.8,15.612,24.397,16.491C27.993,17.372,28.063,29.56,24.552,43.715z"/>
	<path fill="#CC5151" d="M30.432,32.585c-9.73,10.91-19.865,17.777-22.639,15.336C5.019,45.48,10.66,34.656,20.39,23.746
		c9.73-10.912,19.865-17.779,22.637-15.338C45.8,10.849,40.161,21.673,30.432,32.585z"/>
	<path fill="#CC5151" d="M40.845,25.443c-13.721,5.171-25.907,6.57-27.22,3.13c-1.313-3.443,8.743-10.423,22.462-15.592
		c13.719-5.171,25.905-6.57,27.22-3.13C64.62,13.294,54.563,20.274,40.845,25.443z"/>
	<path fill="#CC5151" d="M53.404,23.928c-14.565-1.758-26.01-6.143-25.564-9.797c0.446-3.654,12.617-5.193,27.182-3.435
		c14.565,1.756,26.01,6.143,25.564,9.797C80.14,24.148,67.969,25.686,53.404,23.928z"/>
	<path fill="#CC5151" d="M65.233,28.386C53.159,20.105,45.075,10.936,47.181,7.907c2.104-3.029,13.599,1.227,25.674,9.508
		c12.077,8.281,20.158,17.451,18.054,20.479C88.805,40.923,77.31,36.667,65.233,28.386z"/>
	<path fill="#CC5151" d="M73.624,37.796c-6.818-12.909-9.688-24.759-6.406-26.47c3.28-1.71,11.467,7.366,18.285,20.275
		c6.818,12.907,9.688,24.757,6.406,26.468C88.63,59.779,80.442,50.703,73.624,37.796z"/>
	<ellipse fill="#CC5151" cx="83.36" cy="50" rx="6.708" ry="26.395"/>
	<path fill="#CC5151" d="M73.624,62.204c6.818-12.907,15.006-21.984,18.285-20.273c3.282,1.71,0.412,13.561-6.406,26.468
		c-6.818,12.909-15.006,21.986-18.285,20.275C63.936,86.964,66.806,75.114,73.624,62.204z"/>
	<path fill="#CC5151" d="M65.233,71.614c12.077-8.281,23.572-12.537,25.676-9.508c2.104,3.029-5.978,12.199-18.054,20.479
		c-12.075,8.281-23.57,12.537-25.674,9.508C45.075,89.064,53.159,79.895,65.233,71.614z"/>
	<path fill="#CC5151" d="M53.404,76.072c14.565-1.758,26.736-0.22,27.182,3.435c0.446,3.654-10.999,8.041-25.564,9.797
		c-14.565,1.758-26.736,0.22-27.182-3.435C27.393,82.215,38.838,77.83,53.404,76.072z"/>
	<path fill="#CC5151" d="M40.845,74.557c13.719,5.169,23.775,12.149,22.462,15.592c-1.315,3.441-13.501,2.041-27.22-3.13
		C22.368,81.85,12.312,74.87,13.625,71.428C14.938,67.987,27.124,69.387,40.845,74.557z"/>
	<path fill="#CC5151" d="M30.432,67.415c9.73,10.912,15.368,21.736,12.595,24.177c-2.772,2.441-12.908-4.426-22.637-15.338
		C10.66,65.344,5.019,54.52,7.793,52.079C10.566,49.638,20.702,56.505,30.432,67.415z"/>
	<path fill="#CC5151" d="M24.552,56.285c3.511,14.154,3.441,26.343-0.155,27.224c-3.597,0.879-9.361-9.88-12.872-24.035
		S8.084,33.133,11.68,32.253C15.277,31.372,21.041,42.131,24.552,56.285z"/>
</g>
</svg>
