<?xml version="1.0" encoding="utf-8"?>
<!-- Generator: Adobe Illustrator 17.0.0, SVG Export Plug-In . SVG Version: 6.00 Build 0)  -->
<!DOCTYPE svg PUBLIC "-//W3C//DTD SVG 1.1//EN" "http://www.w3.org/Graphics/SVG/1.1/DTD/svg11.dtd">
<svg version="1.1" id="Layer_1" xmlns="http://www.w3.org/2000/svg" xmlns:xlink="http://www.w3.org/1999/xlink" x="0px" y="0px"
	 width="100px" height="102.565px" viewBox="0 0 100 102.565" enable-background="new 0 0 100 102.565" xml:space="preserve">
<g>
	<circle fill="#ED7635" cx="51.614" cy="51.283" r="30.62"/>
</g>
<g>
	<ellipse fill="#8ECC51" cx="22.867" cy="51.283" rx="1.872" ry="43.066"/>
	
		<ellipse transform="matrix(0.6235 0.7818 -0.7818 0.6235 35.2041 -15.493)" fill="#8ECC51" cx="33.689" cy="28.808" rx="1.872" ry="43.064"/>
	
		<ellipse transform="matrix(-0.2223 0.975 -0.975 -0.2223 93.5798 -28.135)" fill="#8ECC51" cx="58.011" cy="23.256" rx="1.873" ry="43.066"/>
	
		<ellipse transform="matrix(-0.9008 0.4342 -0.4342 -0.9008 164.1918 40.1118)" fill="#8ECC51" cx="77.514" cy="38.81" rx="1.872" ry="43.066"/>
	
		<ellipse transform="matrix(-0.9008 -0.4342 0.4342 -0.9008 119.6556 154.845)" fill="#8ECC51" cx="77.514" cy="63.755" rx="1.872" ry="43.066"/>
	
		<ellipse transform="matrix(-0.2224 -0.975 0.975 -0.2224 -6.4089 153.5059)" fill="#8ECC51" cx="58.011" cy="79.309" rx="1.872" ry="43.066"/>
	
		<ellipse transform="matrix(0.6235 -0.7818 0.7818 0.6235 -44.9801 54.1041)" fill="#8ECC51" cx="33.689" cy="73.757" rx="1.872" ry="43.067"/>
</g>
<g>
	
		<ellipse transform="matrix(0.9009 0.4341 -0.4341 0.9009 19.2236 -7.098)" fill="#51CCCC" cx="25.152" cy="38.539" rx="1.248" ry="28.712"/>
	
		<ellipse transform="matrix(0.2223 0.975 -0.975 0.2223 57.1349 -26.3386)" fill="#51CCCC" cx="45.078" cy="22.647" rx="1.248" ry="28.712"/>
	<path fill="#51CCCC" d="M69.149,29.296c-12.398-9.886-22.099-18.339-21.67-18.879c0.43-0.538,10.829,7.04,23.227,16.927
		c12.396,9.884,22.097,18.337,21.667,18.876C91.944,46.758,81.547,39.182,69.149,29.296z"/>
	<ellipse fill="#51CCCC" cx="80.986" cy="51.283" rx="1.248" ry="28.71"/>
	
		<ellipse transform="matrix(-0.6237 -0.7816 0.7816 -0.6237 55.5099 175.2127)" fill="#51CCCC" cx="69.928" cy="74.245" rx="1.248" ry="28.71"/>
	
		<ellipse transform="matrix(0.2225 -0.9749 0.9749 0.2225 -42.8672 106.081)" fill="#51CCCC" cx="45.078" cy="79.918" rx="1.247" ry="28.712"/>
	
		<ellipse transform="matrix(0.9009 -0.4341 0.4341 0.9009 -25.3006 17.2661)" fill="#51CCCC" cx="25.152" cy="64.026" rx="1.248" ry="28.711"/>
</g>
<g>
	
		<ellipse transform="matrix(0.6247 0.7809 -0.7809 0.6247 34.2604 -15.295)" fill="#8E51CC" cx="33.042" cy="27.994" rx="0.832" ry="19.139"/>
	
		<ellipse transform="matrix(-0.2222 0.975 -0.975 -0.2222 92.8718 -29.6016)" fill="#8E51CC" cx="58.243" cy="22.241" rx="0.833" ry="19.14"/>
	
		<ellipse transform="matrix(-0.9007 0.4345 -0.4345 -0.9007 165.7775 38.8241)" fill="#8E51CC" cx="78.452" cy="38.358" rx="0.832" ry="19.14"/>
	
		<ellipse transform="matrix(-0.9007 -0.4345 0.4345 -0.9007 121.2177 156.1213)" fill="#8E51CC" cx="78.452" cy="64.207" rx="0.832" ry="19.14"/>
	
		<ellipse transform="matrix(-0.2225 -0.9749 0.9749 -0.2225 -7.1055 154.9799)" fill="#8E51CC" cx="58.243" cy="80.323" rx="0.832" ry="19.14"/>
	
		<ellipse transform="matrix(0.6247 -0.7809 0.7809 0.6247 -45.8298 53.7884)" fill="#8E51CC" cx="33.042" cy="74.571" rx="0.832" ry="19.141"/>
	<ellipse fill="#8E51CC" cx="21.827" cy="51.283" rx="0.833" ry="19.141"/>
</g>
<g>
	
		<ellipse transform="matrix(0.2221 0.975 -0.975 0.2221 56.4439 -26.6738)" fill="#CC5151" cx="44.939" cy="22.039" rx="0.625" ry="14.355"/>
	
		<ellipse transform="matrix(-0.6243 0.7812 -0.7812 -0.6243 135.9552 -9.7256)" fill="#CC5151" cx="70.316" cy="27.832" rx="0.625" ry="14.356"/>
	<ellipse fill="#CC5151" cx="81.609" cy="51.283" rx="0.625" ry="14.356"/>
	
		<ellipse transform="matrix(-0.6243 -0.7812 0.7812 -0.6243 55.8297 176.3188)" fill="#CC5151" cx="70.316" cy="74.733" rx="0.625" ry="14.355"/>
	
		<ellipse transform="matrix(0.2225 -0.9749 0.9749 0.2225 -43.5678 106.4187)" fill="#CC5151" cx="44.939" cy="80.526" rx="0.624" ry="14.355"/>
	
		<ellipse transform="matrix(0.9007 -0.4345 0.4345 0.9007 -25.4922 17.0678)" fill="#CC5151" cx="24.589" cy="64.297" rx="0.624" ry="14.354"/>
	
		<ellipse transform="matrix(0.9007 0.4345 -0.4345 0.9007 19.0675 -6.8826)" fill="#CC5151" cx="24.589" cy="38.268" rx="0.624" ry="14.355"/>
</g>
</svg>
