<?xml version="1.0" encoding="utf-8"?>
<!-- Generator: Adobe Illustrator 17.0.0, SVG Export Plug-In . SVG Version: 6.00 Build 0)  -->
<!DOCTYPE svg PUBLIC "-//W3C//DTD SVG 1.1//EN" "http://www.w3.org/Graphics/SVG/1.1/DTD/svg11.dtd">
<svg version="1.1" id="Layer_1" xmlns="http://www.w3.org/2000/svg" xmlns:xlink="http://www.w3.org/1999/xlink" x="0px" y="0px"
	 width="100px" height="100px" viewBox="0 0 100 100" enable-background="new 0 0 100 100" xml:space="preserve">
<g>
	<ellipse fill="#ED7635" cx="50" cy="50" rx="8.621" ry="9.015"/>
</g>
<g>
	<ellipse fill="#8ECC51" cx="79.31" cy="50" rx="20.69" ry="10.818"/>
	<path fill="#8ECC51" d="M90.452,80.734c-3.359,4.832-13.576,3.058-22.821-3.967s-14.014-16.635-10.655-21.47
		c3.355-4.832,13.572-3.058,22.817,3.967C89.038,66.288,93.81,75.898,90.452,80.734z"/>
	<path fill="#8ECC51" d="M65.452,99.727c-5.434,1.846-12.703-5.867-16.234-17.233c-3.531-11.363-1.986-22.072,3.448-23.919
		c5.431-1.846,12.7,5.867,16.231,17.233C72.428,87.171,70.886,97.881,65.452,99.727z"/>
	<path fill="#8ECC51" d="M34.548,99.727c-5.434-1.846-6.976-12.556-3.445-23.919c3.531-11.366,10.8-19.079,16.231-17.233
		c5.434,1.846,6.979,12.556,3.448,23.919C47.252,93.86,39.983,101.573,34.548,99.727z"/>
	<path fill="#8ECC51" d="M9.548,80.734c-3.359-4.836,1.414-14.446,10.659-21.47s19.462-8.799,22.817-3.967
		c3.359,4.836-1.41,14.446-10.655,21.47S12.907,85.566,9.548,80.734z"/>
	<ellipse fill="#8ECC51" cx="20.69" cy="50" rx="20.69" ry="10.818"/>
	<path fill="#8ECC51" d="M9.548,19.266c3.359-4.832,13.576-3.058,22.821,3.967c9.245,7.025,14.014,16.635,10.655,21.47
		c-3.355,4.832-13.572,3.058-22.817-3.967S6.19,24.102,9.548,19.266z"/>
	<path fill="#8ECC51" d="M34.548,0.273c5.434-1.846,12.703,5.867,16.234,17.233c3.531,11.363,1.986,22.072-3.448,23.919
		c-5.431,1.846-12.7-5.867-16.231-17.233C27.572,12.829,29.114,2.119,34.548,0.273z"/>
	<path fill="#8ECC51" d="M65.452,0.273c5.434,1.846,6.976,12.556,3.445,23.919c-3.531,11.366-10.8,19.079-16.231,17.233
		c-5.434-1.846-6.979-12.556-3.448-23.919C52.748,6.14,60.017-1.573,65.452,0.273z"/>
	<path fill="#8ECC51" d="M90.452,19.266c3.359,4.836-1.414,14.446-10.659,21.47c-9.245,7.025-19.462,8.799-22.817,3.967
		c-3.359-4.836,1.41-14.446,10.655-21.47C76.876,16.208,87.093,14.434,90.452,19.266z"/>
</g>
<g>
	<path fill="#51CCCC" d="M84.434,61.702c-1.176,3.786-8.003,4.861-15.248,2.402C61.941,61.64,57.021,56.574,58.2,52.787
		c1.176-3.79,8.003-4.865,15.248-2.405C80.693,52.845,85.61,57.912,84.434,61.702z"/>
	<path fill="#51CCCC" d="M71.283,80.633c-3.083,2.34-9.21-0.988-13.686-7.432c-4.479-6.444-5.61-13.566-2.531-15.906
		c3.083-2.344,9.21,0.984,13.69,7.428C73.231,71.167,74.362,78.289,71.283,80.633z"/>
	<ellipse fill="#51CCCC" cx="50" cy="73.439" rx="6.897" ry="14.424"/>
	<path fill="#51CCCC" d="M28.717,80.633c-3.079-2.344-1.948-9.466,2.528-15.91c4.479-6.444,10.607-9.772,13.69-7.428
		c3.079,2.34,1.948,9.462-2.531,15.906C37.928,79.645,31.8,82.973,28.717,80.633z"/>
	<path fill="#51CCCC" d="M15.566,61.702c-1.176-3.79,3.741-8.856,10.986-11.319c7.245-2.459,14.072-1.385,15.248,2.405
		c1.179,3.786-3.741,8.853-10.986,11.316C23.569,66.562,16.741,65.488,15.566,61.702z"/>
	<path fill="#51CCCC" d="M15.566,38.298c1.176-3.786,8.003-4.861,15.248-2.402c7.245,2.463,12.166,7.529,10.986,11.316
		c-1.176,3.79-8.003,4.865-15.248,2.405C19.307,47.155,14.39,42.088,15.566,38.298z"/>
	<path fill="#51CCCC" d="M28.717,19.367c3.083-2.34,9.21,0.988,13.686,7.432c4.479,6.444,5.61,13.566,2.531,15.906
		c-3.083,2.344-9.21-0.984-13.69-7.428C26.769,28.833,25.638,21.711,28.717,19.367z"/>
	<ellipse fill="#51CCCC" cx="50" cy="26.561" rx="6.897" ry="14.424"/>
	<path fill="#51CCCC" d="M71.283,19.367c3.079,2.344,1.948,9.466-2.528,15.91c-4.479,6.444-10.607,9.772-13.69,7.428
		c-3.079-2.34-1.948-9.462,2.531-15.906C62.072,20.355,68.2,17.027,71.283,19.367z"/>
	<path fill="#51CCCC" d="M84.434,38.298c1.176,3.79-3.741,8.856-10.986,11.319c-7.245,2.459-14.072,1.385-15.248-2.405
		c-1.179-3.786,3.741-8.853,10.986-11.316C76.431,33.438,83.259,34.512,84.434,38.298z"/>
</g>
<g>
	<path fill="#8E51CC" d="M71.852,66.602c-1.493,2.149-6.031,1.359-10.141-1.76c-4.107-3.123-6.228-7.396-4.734-9.545
		c1.49-2.146,6.031-1.356,10.141,1.763C71.224,60.183,73.345,64.457,71.852,66.602z"/>
	<path fill="#8E51CC" d="M58.348,76.865c-2.417,0.819-5.645-2.611-7.214-7.659c-1.572-5.052-0.886-9.812,1.531-10.631
		c2.414-0.822,5.645,2.607,7.214,7.659C61.448,71.283,60.762,76.043,58.348,76.865z"/>
	<path fill="#8E51CC" d="M41.652,76.865c-2.414-0.822-3.1-5.582-1.531-10.631c1.569-5.052,4.8-8.481,7.214-7.659
		c2.417,0.819,3.103,5.579,1.531,10.631C47.297,74.254,44.069,77.683,41.652,76.865z"/>
	<path fill="#8E51CC" d="M28.148,66.602c-1.493-2.146,0.628-6.419,4.734-9.542c4.11-3.119,8.652-3.909,10.141-1.763
		c1.493,2.149-0.628,6.422-4.734,9.545C34.179,67.962,29.641,68.751,28.148,66.602z"/>
	<ellipse fill="#8E51CC" cx="32.184" cy="50" rx="9.195" ry="4.807"/>
	<path fill="#8E51CC" d="M28.148,33.398c1.493-2.149,6.031-1.359,10.141,1.76c4.107,3.123,6.228,7.396,4.734,9.545
		c-1.49,2.146-6.031,1.356-10.141-1.763C28.776,39.817,26.655,35.543,28.148,33.398z"/>
	<path fill="#8E51CC" d="M41.652,23.135c2.417-0.819,5.645,2.611,7.214,7.659c1.572,5.052,0.886,9.812-1.531,10.631
		c-2.414,0.822-5.645-2.607-7.214-7.659C38.552,28.717,39.238,23.957,41.652,23.135z"/>
	<path fill="#8E51CC" d="M58.348,23.135c2.414,0.822,3.1,5.582,1.531,10.631c-1.569,5.052-4.8,8.481-7.214,7.659
		c-2.417-0.819-3.103-5.579-1.531-10.631C52.703,25.746,55.931,22.317,58.348,23.135z"/>
	<path fill="#8E51CC" d="M71.852,33.398c1.493,2.146-0.628,6.419-4.734,9.542c-4.11,3.119-8.652,3.909-10.141,1.763
		c-1.493-2.149,0.628-6.422,4.734-9.545C65.821,32.038,70.359,31.249,71.852,33.398z"/>
	<ellipse fill="#8E51CC" cx="67.816" cy="50" rx="9.195" ry="4.807"/>
</g>
<g>
	<path fill="#CC5151" d="M63.176,68.964c-1.541,1.168-4.607-0.494-6.845-3.718c-2.238-3.22-2.803-6.783-1.266-7.951
		c1.541-1.172,4.607,0.49,6.845,3.714C64.148,64.229,64.714,67.792,63.176,68.964z"/>
	<ellipse fill="#CC5151" cx="50" cy="66.227" rx="3.448" ry="7.212"/>
	<path fill="#CC5151" d="M36.824,68.964c-1.538-1.172-0.972-4.735,1.266-7.955c2.238-3.224,5.303-4.886,6.845-3.714
		c1.538,1.168,0.972,4.731-1.266,7.951C41.431,68.47,38.366,70.132,36.824,68.964z"/>
	<path fill="#CC5151" d="M28.683,57.244c-0.59-1.897,1.872-4.428,5.493-5.658c3.624-1.233,7.038-0.696,7.624,1.201
		c0.59,1.893-1.869,4.425-5.493,5.658C32.686,59.675,29.272,59.138,28.683,57.244z"/>
	<path fill="#CC5151" d="M28.683,42.756c0.59-1.893,4.003-2.43,7.624-1.201c3.624,1.233,6.083,3.765,5.493,5.658
		c-0.586,1.897-4,2.434-7.624,1.201C30.555,47.184,28.093,44.652,28.683,42.756z"/>
	<path fill="#CC5151" d="M36.824,31.036c1.541-1.168,4.607,0.494,6.845,3.718c2.238,3.22,2.803,6.783,1.266,7.951
		c-1.541,1.172-4.607-0.49-6.845-3.714C35.852,35.771,35.286,32.208,36.824,31.036z"/>
	<ellipse fill="#CC5151" cx="50" cy="33.773" rx="3.448" ry="7.212"/>
	<path fill="#CC5151" d="M63.176,31.036c1.538,1.172,0.972,4.735-1.266,7.955c-2.238,3.224-5.303,4.886-6.845,3.714
		c-1.538-1.168-0.972-4.731,1.266-7.951C58.569,31.53,61.634,29.868,63.176,31.036z"/>
	<path fill="#CC5151" d="M71.317,42.756c0.59,1.897-1.872,4.428-5.493,5.658c-3.624,1.233-7.038,0.696-7.624-1.201
		c-0.59-1.893,1.869-4.425,5.493-5.658C67.314,40.325,70.728,40.862,71.317,42.756z"/>
	<path fill="#CC5151" d="M71.317,57.244c-0.59,1.893-4.003,2.43-7.624,1.201c-3.624-1.233-6.083-3.765-5.493-5.658
		c0.586-1.897,4-2.434,7.624-1.201C69.445,52.816,71.907,55.348,71.317,57.244z"/>
</g>
</svg>
