<?xml version="1.0" encoding="utf-8"?>
<!-- Generator: Adobe Illustrator 17.0.0, SVG Export Plug-In . SVG Version: 6.00 Build 0)  -->
<!DOCTYPE svg PUBLIC "-//W3C//DTD SVG 1.1//EN" "http://www.w3.org/Graphics/SVG/1.1/DTD/svg11.dtd">
<svg version="1.1" id="Layer_1" xmlns="http://www.w3.org/2000/svg" xmlns:xlink="http://www.w3.org/1999/xlink" x="0px" y="0px"
	 width="100px" height="100px" viewBox="0 0 100 100" enable-background="new 0 0 100 100" xml:space="preserve">
<g>
	<ellipse fill="#ED7635" cx="49.132" cy="50" rx="41.451" ry="39.618"/>
</g>
<g>
	<ellipse fill="#51CCCC" cx="18.147" cy="50" rx="10.466" ry="39.618"/>
	<path fill="#51CCCC" d="M42.792,31.35C21.02,38.111,1.921,39.333,0.135,34.077c-1.787-5.253,14.417-14.996,36.189-21.756
		s40.869-7.983,42.655-2.73C80.765,14.847,64.564,24.587,42.792,31.35z"/>
	<path fill="#51CCCC" d="M65.731,38.473C52.276,20.772,45.159,3.789,49.834,0.54c4.676-3.247,19.376,8.47,32.831,26.172
		c13.457,17.701,20.574,34.686,15.898,37.933C93.886,67.892,79.188,56.175,65.731,38.473z"/>
	<path fill="#51CCCC" d="M65.731,61.527c13.457-17.702,28.156-29.419,32.833-26.172c4.676,3.247-2.441,20.231-15.898,37.933
		C69.21,90.989,54.51,102.706,49.834,99.46C45.159,96.211,52.276,79.228,65.731,61.527z"/>
	<path fill="#51CCCC" d="M42.792,68.65c21.772,6.763,37.973,16.503,36.187,21.758c-1.787,5.253-20.883,4.031-42.655-2.73
		C14.551,80.918-1.652,71.176,0.135,65.923C1.921,60.667,21.02,61.889,42.792,68.65z"/>
</g>
<g>
	<path fill="#CC5151" d="M26.887,34.553c-8.97,11.8-18.771,19.613-21.888,17.448c-3.117-2.165,1.627-13.486,10.599-25.288
		c8.97-11.8,18.769-19.613,21.886-17.448C40.603,11.43,35.857,22.752,26.887,34.553z"/>
	<path fill="#CC5151" d="M57.629,25.007c-14.516-4.509-25.316-11.002-24.126-14.504c1.192-3.504,13.923-2.69,28.437,1.818
		c14.516,4.507,25.316,11.002,24.127,14.504C84.875,30.327,72.143,29.513,57.629,25.007z"/>
	<ellipse fill="#CC5151" cx="83.605" cy="50" rx="6.977" ry="26.412"/>
	<path fill="#CC5151" d="M57.629,74.993c14.514-4.507,27.246-5.321,28.437-1.818c1.19,3.502-9.61,9.998-24.127,14.504
		c-14.514,4.509-27.246,5.323-28.437,1.818C32.313,85.995,43.113,79.502,57.629,74.993z"/>
	<path fill="#CC5151" d="M26.887,65.447c8.97,11.8,13.716,23.123,10.597,25.288c-3.117,2.165-12.916-5.648-21.886-17.448
		C6.626,61.485,1.882,50.164,4.999,47.999C8.116,45.834,17.917,53.647,26.887,65.447z"/>
</g>
</svg>
