<?xml version="1.0" encoding="utf-8"?>
<!-- Generator: Adobe Illustrator 17.0.0, SVG Export Plug-In . SVG Version: 6.00 Build 0)  -->
<!DOCTYPE svg PUBLIC "-//W3C//DTD SVG 1.1//EN" "http://www.w3.org/Graphics/SVG/1.1/DTD/svg11.dtd">
<svg version="1.1" id="Layer_1" xmlns="http://www.w3.org/2000/svg" xmlns:xlink="http://www.w3.org/1999/xlink" x="0px" y="0px"
	 width="100px" height="100px" viewBox="0 0 100 100" enable-background="new 0 0 100 100" xml:space="preserve">
<g>
	<circle fill="#ED7635" cx="50" cy="50" r="1.923"/>
</g>
<g>
	<ellipse fill="#8ECC51" cx="75.962" cy="50" rx="24.038" ry="8.173"/>
	
		<ellipse transform="matrix(0.9239 0.3827 -0.3827 0.9239 28.5679 -23.7506)" fill="#8ECC51" cx="73.986" cy="59.936" rx="24.038" ry="8.173"/>
	
		<ellipse transform="matrix(0.7071 0.7071 -0.7071 0.7071 68.3577 -28.3147)" fill="#8ECC51" cx="68.358" cy="68.358" rx="24.039" ry="8.173"/>
	
		<ellipse transform="matrix(0.3827 0.9239 -0.9239 0.3827 105.3533 -9.7006)" fill="#8ECC51" cx="59.936" cy="73.986" rx="24.038" ry="8.173"/>
	<ellipse fill="#8ECC51" cx="50" cy="75.962" rx="8.173" ry="24.038"/>
	
		<ellipse transform="matrix(-0.3827 0.9239 -0.9239 -0.3827 123.7501 65.2836)" fill="#8ECC51" cx="40.064" cy="73.986" rx="24.038" ry="8.173"/>
	
		<ellipse transform="matrix(-0.7071 0.7071 -0.7071 -0.7071 102.353 94.3194)" fill="#8ECC51" cx="31.642" cy="68.358" rx="24.039" ry="8.173"/>
	
		<ellipse transform="matrix(-0.9239 0.3827 -0.3827 -0.9239 72.9848 105.3537)" fill="#8ECC51" cx="26.014" cy="59.936" rx="24.038" ry="8.173"/>
	<ellipse fill="#8ECC51" cx="24.038" cy="50" rx="24.038" ry="8.173"/>
	
		<ellipse transform="matrix(-0.9239 -0.3827 0.3827 -0.9239 34.7168 87.0344)" fill="#8ECC51" cx="26.014" cy="40.064" rx="24.038" ry="8.173"/>
	
		<ellipse transform="matrix(-0.7071 -0.7071 0.7071 -0.7071 31.6423 76.3913)" fill="#8ECC51" cx="31.642" cy="31.642" rx="24.039" ry="8.173"/>
	
		<ellipse transform="matrix(-0.3827 -0.9239 0.9239 -0.3827 31.3621 72.9844)" fill="#8ECC51" cx="40.064" cy="26.014" rx="24.038" ry="8.173"/>
	<ellipse fill="#8ECC51" cx="50" cy="24.038" rx="8.173" ry="24.038"/>
	
		<ellipse transform="matrix(0.3827 -0.9239 0.9239 0.3827 12.9652 71.4325)" fill="#8ECC51" cx="59.936" cy="26.014" rx="24.038" ry="8.173"/>
	
		<ellipse transform="matrix(0.7071 -0.7071 0.7071 0.7071 -2.353 57.604)" fill="#8ECC51" cx="68.358" cy="31.642" rx="24.039" ry="8.173"/>
	
		<ellipse transform="matrix(0.9239 -0.3827 0.3827 0.9239 -9.7001 31.3625)" fill="#8ECC51" cx="73.986" cy="40.064" rx="24.038" ry="8.173"/>
</g>
<g>
	
		<ellipse transform="matrix(0.9808 0.1951 -0.1951 0.9808 11.7389 -12.1627)" fill="#51CCCC" cx="67.604" cy="53.502" rx="16.025" ry="5.449"/>
	
		<ellipse transform="matrix(0.8315 0.5555 -0.5555 0.8315 44.2576 -25.9616)" fill="#51CCCC" cx="64.923" cy="59.972" rx="16.026" ry="5.448"/>
	
		<ellipse transform="matrix(0.5555 0.8315 -0.8315 0.5555 80.6376 -21.0106)" fill="#51CCCC" cx="59.972" cy="64.923" rx="16.026" ry="5.451"/>
	
		<ellipse transform="matrix(0.1951 0.9808 -0.9808 0.1951 109.3668 1.9392)" fill="#51CCCC" cx="53.502" cy="67.604" rx="16.025" ry="5.449"/>
	
		<ellipse transform="matrix(-0.1951 0.9808 -0.9808 -0.1951 121.8754 35.1906)" fill="#51CCCC" cx="46.498" cy="67.604" rx="16.025" ry="5.449"/>
	
		<ellipse transform="matrix(-0.5555 0.8315 -0.8315 -0.5555 116.2478 67.7081)" fill="#51CCCC" cx="40.028" cy="64.923" rx="16.026" ry="5.448"/>
	
		<ellipse transform="matrix(-0.8315 0.5555 -0.5555 -0.8315 97.5601 90.3513)" fill="#51CCCC" cx="35.077" cy="59.972" rx="16.026" ry="5.451"/>
	
		<ellipse transform="matrix(-0.9808 0.1951 -0.1951 -0.9808 74.6091 99.6542)" fill="#51CCCC" cx="32.396" cy="53.502" rx="16.025" ry="5.449"/>
	
		<ellipse transform="matrix(-0.9808 -0.1951 0.1951 -0.9808 55.0967 98.4237)" fill="#51CCCC" cx="32.396" cy="46.498" rx="16.025" ry="5.449"/>
	
		<ellipse transform="matrix(-0.8315 -0.5555 0.5555 -0.8315 42.0057 92.7974)" fill="#51CCCC" cx="35.077" cy="40.028" rx="16.026" ry="5.448"/>
	
		<ellipse transform="matrix(-0.5555 -0.8315 0.8315 -0.5555 33.0992 87.8464)" fill="#51CCCC" cx="40.028" cy="35.077" rx="16.026" ry="5.451"/>
	
		<ellipse transform="matrix(-0.1951 -0.9808 0.9808 -0.1951 23.7975 84.3217)" fill="#51CCCC" cx="46.498" cy="32.396" rx="16.025" ry="5.449"/>
	
		<ellipse transform="matrix(0.1951 -0.9808 0.9808 0.1951 11.289 78.5484)" fill="#51CCCC" cx="53.502" cy="32.396" rx="16.025" ry="5.449"/>
	
		<ellipse transform="matrix(0.5555 -0.8315 0.8315 0.5555 -2.5111 65.4562)" fill="#51CCCC" cx="59.972" cy="35.077" rx="16.026" ry="5.448"/>
	
		<ellipse transform="matrix(0.8315 -0.5555 0.5555 0.8315 -11.2969 42.8129)" fill="#51CCCC" cx="64.923" cy="40.028" rx="16.026" ry="5.451"/>
	
		<ellipse transform="matrix(0.9808 -0.1951 0.1951 0.9808 -7.7734 14.0849)" fill="#51CCCC" cx="67.604" cy="46.498" rx="16.025" ry="5.449"/>
</g>
<g>
	
		<ellipse transform="matrix(0.9239 0.3827 -0.3827 0.9239 25.6738 -19.4183)" fill="#8E51CC" cx="61.647" cy="54.825" rx="10.683" ry="3.632"/>
	
		<ellipse transform="matrix(0.7071 0.7071 -0.7071 0.7071 58.9144 -24.4032)" fill="#8E51CC" cx="58.914" cy="58.914" rx="10.684" ry="3.632"/>
	
		<ellipse transform="matrix(0.3827 0.9239 -0.9239 0.3827 90.7983 -12.5962)" fill="#8E51CC" cx="54.825" cy="61.647" rx="10.683" ry="3.632"/>
	<ellipse fill="#8E51CC" cx="50" cy="62.607" rx="3.633" ry="10.684"/>
	
		<ellipse transform="matrix(-0.3827 0.9239 -0.9239 -0.3827 119.4174 43.5028)" fill="#8E51CC" cx="45.175" cy="61.647" rx="10.683" ry="3.632"/>
	
		<ellipse transform="matrix(-0.7071 0.7071 -0.7071 -0.7071 111.7962 71.5213)" fill="#8E51CC" cx="41.086" cy="58.914" rx="10.684" ry="3.632"/>
	
		<ellipse transform="matrix(-0.9239 0.3827 -0.3827 -0.9239 94.7672 90.7992)" fill="#8E51CC" cx="38.353" cy="54.825" rx="10.683" ry="3.632"/>
	<ellipse fill="#8E51CC" cx="37.393" cy="50" rx="10.684" ry="3.633"/>
	
		<ellipse transform="matrix(-0.9239 -0.3827 0.3827 -0.9239 56.4981 101.5884)" fill="#8E51CC" cx="38.353" cy="45.175" rx="10.683" ry="3.632"/>
	
		<ellipse transform="matrix(-0.7071 -0.7071 0.7071 -0.7071 41.0856 99.1893)" fill="#8E51CC" cx="41.086" cy="41.086" rx="10.684" ry="3.632"/>
	
		<ellipse transform="matrix(-0.3827 -0.9239 0.9239 -0.3827 27.0297 94.7663)" fill="#8E51CC" cx="45.175" cy="38.353" rx="10.683" ry="3.632"/>
	<ellipse fill="#8E51CC" cx="50" cy="37.393" rx="3.633" ry="10.684"/>
	
		<ellipse transform="matrix(0.3827 -0.9239 0.9239 0.3827 -1.5893 74.3271)" fill="#8E51CC" cx="54.825" cy="38.353" rx="10.683" ry="3.632"/>
	
		<ellipse transform="matrix(0.7071 -0.7071 0.7071 0.7071 -11.7962 53.6925)" fill="#8E51CC" cx="58.914" cy="41.086" rx="10.684" ry="3.632"/>
	
		<ellipse transform="matrix(0.9239 -0.3827 0.3827 0.9239 -12.5953 27.0307)" fill="#8E51CC" cx="61.647" cy="45.175" rx="10.683" ry="3.632"/>
	<ellipse fill="#8E51CC" cx="62.607" cy="50" rx="10.684" ry="3.633"/>
</g>
<g>
	
		<ellipse transform="matrix(0.8315 0.5555 -0.5555 0.8315 40.6577 -23.0096)" fill="#CC5151" cx="58.261" cy="55.52" rx="8.012" ry="2.723"/>
	
		<ellipse transform="matrix(0.5555 0.8315 -0.8315 0.5555 73.1231 -20.2692)" fill="#CC5151" cx="55.52" cy="58.261" rx="8.012" ry="2.724"/>
	
		<ellipse transform="matrix(0.1951 0.9808 -0.9808 0.1951 100.4009 -2.8527)" fill="#CC5151" cx="51.938" cy="59.745" rx="8.013" ry="2.724"/>
	
		<ellipse transform="matrix(-0.1951 0.9808 -0.9808 -0.1951 116.0362 24.2651)" fill="#CC5151" cx="48.062" cy="59.745" rx="8.013" ry="2.724"/>
	
		<ellipse transform="matrix(-0.5555 0.8315 -0.8315 -0.5555 117.633 53.6389)" fill="#CC5151" cx="44.48" cy="58.261" rx="8.012" ry="2.723"/>
	
		<ellipse transform="matrix(-0.8315 0.5555 -0.5555 -0.8315 107.288 78.4997)" fill="#CC5151" cx="41.739" cy="55.52" rx="8.012" ry="2.724"/>
	
		<ellipse transform="matrix(-0.9808 0.1951 -0.1951 -0.9808 89.8703 95.024)" fill="#CC5151" cx="40.255" cy="51.938" rx="8.013" ry="2.724"/>
	
		<ellipse transform="matrix(-0.9808 -0.1951 0.1951 -0.9808 70.358 103.0539)" fill="#CC5151" cx="40.255" cy="48.062" rx="8.013" ry="2.724"/>
	
		<ellipse transform="matrix(-0.8315 -0.5555 0.5555 -0.8315 51.7377 104.6518)" fill="#CC5151" cx="41.739" cy="44.48" rx="8.012" ry="2.723"/>
	
		<ellipse transform="matrix(-0.5555 -0.8315 0.8315 -0.5555 34.4815 101.9114)" fill="#CC5151" cx="44.48" cy="41.739" rx="8.012" ry="2.724"/>
	
		<ellipse transform="matrix(-0.1951 -0.9808 0.9808 -0.1951 17.9584 95.2472)" fill="#CC5151" cx="48.062" cy="40.255" rx="8.013" ry="2.724"/>
	
		<ellipse transform="matrix(0.1951 -0.9808 0.9808 0.1951 2.323 83.3403)" fill="#CC5151" cx="51.938" cy="40.255" rx="8.013" ry="2.724"/>
	
		<ellipse transform="matrix(0.5555 -0.8315 0.8315 0.5555 -10.0284 64.7189)" fill="#CC5151" cx="55.52" cy="41.739" rx="8.012" ry="2.723"/>
	
		<ellipse transform="matrix(0.8315 -0.5555 0.5555 0.8315 -14.8926 39.8581)" fill="#CC5151" cx="58.261" cy="44.48" rx="8.012" ry="2.724"/>
	
		<ellipse transform="matrix(0.9808 -0.1951 0.1951 0.9808 -8.2295 12.5815)" fill="#CC5151" cx="59.745" cy="48.062" rx="8.013" ry="2.724"/>
	
		<ellipse transform="matrix(0.9808 0.1951 -0.1951 0.9808 11.2828 -10.6594)" fill="#CC5151" cx="59.745" cy="51.938" rx="8.013" ry="2.724"/>
</g>
</svg>
